{
  "accessors": [
    {
      "bufferView": 2,
      "componentType": 5126,
      "count": 17159,
      "max": [
        31.031675338745117,
        28.437475204467773,
        99.209716796875
      ],
      "min": [
        -31.031675338745117,
        -28.824819564819336,
        0
      ],
      "type": "VEC3"
    },
    {
      "bufferView": 2,
      "byteOffset": 205908,
      "componentType": 5126,
      "count": 17159,
      "max": [
        1,
        1,
        1
      ],
      "min": [
        -1,
        -1,
        -1
      ],
      "type": "VEC3"
    },
    {
      "bufferView": 3,
      "componentType": 5126,
      "count": 17159,
      "max": [
        1,
        1,
        1,
        1
      ],
      "min": [
        -1,
        -1,
        -1,
        -1
      ],
      "type": "VEC4"
    },
    {
      "bufferView": 1,
      "componentType": 5126,
      "count": 17159,
      "max": [
        0.99600398540496826,
        0.99748998880386353
      ],
      "min": [
        0.0024989999365061522,
        0.0024969999212771654
      ],
      "type": "VEC2"
    },
    {
      "bufferView": 0,
      "componentType": 5125,
      "count": 54438,
      "max": [
        17158
      ],
      "min": [
        0
      ],
      "type": "SCALAR"
    },
    {
      "bufferView": 2,
      "byteOffset": 411816,
      "componentType": 5126,
      "count": 2,
      "max": [
        -18.376035690307617,
        21.879907608032227,
        69.104255676269531
      ],
      "min": [
        -18.376035690307617,
        21.592462539672852,
        69.065864562988281
      ],
      "type": "VEC3"
    },
    {
      "bufferView": 1,
      "byteOffset": 137272,
      "componentType": 5126,
      "count": 2,
      "max": [
        0,
        0
      ],
      "min": [
        0,
        0
      ],
      "type": "VEC2"
    },
    {
      "bufferView": 0,
      "byteOffset": 217752,
      "componentType": 5125,
      "count": 2,
      "max": [
        1
      ],
      "min": [
        0
      ],
      "type": "SCALAR"
    },
    {
      "bufferView": 2,
      "byteOffset": 411840,
      "componentType": 5126,
      "count": 74,
      "max": [
        26.118406295776367,
        24.915412902832031,
        92.739433288574219
      ],
      "min": [
        -26.118406295776367,
        -23.798639297485352,
        47.687320709228516
      ],
      "type": "VEC3"
    },
    {
      "bufferView": 2,
      "byteOffset": 412728,
      "componentType": 5126,
      "count": 74,
      "max": [
        0,
        -0,
        1
      ],
      "min": [
        0,
        -0.99119645357131958,
        0.13239952921867371
      ],
      "type": "VEC3"
    },
    {
      "bufferView": 3,
      "byteOffset": 274544,
      "componentType": 5126,
      "count": 74,
      "max": [
        3.2867999834707007e-05,
        0.1323995441198349,
        0.99119651317596436,
        1
      ],
      "min": [
        -2.9906761483289301e-05,
        -1,
        0,
        -1
      ],
      "type": "VEC4"
    },
    {
      "bufferView": 1,
      "byteOffset": 137288,
      "componentType": 5126,
      "count": 74,
      "max": [
        0.91723001003265381,
        1.0215990543365479
      ],
      "min": [
        0.014488000422716141,
        -0.15116399526596069
      ],
      "type": "VEC2"
    },
    {
      "bufferView": 0,
      "byteOffset": 217760,
      "componentType": 5125,
      "count": 210,
      "max": [
        73
      ],
      "min": [
        0
      ],
      "type": "SCALAR"
    }
  ],
  "asset": {
    "extras": {
      "author": "Interiors3D (https://sketchfab.com/Interiors3D)",
      "license": "CC-BY-4.0 (http://creativecommons.org/licenses/by/4.0/)",
      "source": "https://sketchfab.com/3d-models/hph000-957e693731194dedb8024aa37e4f0d7e",
      "title": "HPH000"
    },
    "generator": "Sketchfab-9.64.0",
    "version": "2.0"
  },
  "bufferViews": [
    {
      "buffer": 0,
      "byteLength": 218600,
      "byteOffset": 0,
      "name": "floatBufferViews",
      "target": 34963
    },
    {
      "buffer": 0,
      "byteLength": 137880,
      "byteOffset": 218600,
      "byteStride": 8,
      "name": "floatBufferViews",
      "target": 34962
    },
    {
      "buffer": 0,
      "byteLength": 413616,
      "byteOffset": 356480,
      "byteStride": 12,
      "name": "floatBufferViews",
      "target": 34962
    },
    {
      "buffer": 0,
      "byteLength": 275728,
      "byteOffset": 770096,
      "byteStride": 16,
      "name": "floatBufferViews",
      "target": 34962
    }
  ],
  "buffers": [
    {
      "byteLength": 1045824,
      "uri": "scene.bin"
    }
  ],
  "images": [
    {
      "uri": "textures/Painted_wood_baseColor.jpeg"
    },
    {
      "uri": "textures/Painted_wood_metallicRoughness.png"
    },
    {
      "uri": "textures/Painted_wood_normal.png"
    },
    {
      "uri": "textures/Rattan_baseColor.png"
    },
    {
      "uri": "textures/Rattan_metallicRoughness.png"
    },
    {
      "uri": "textures/Rattan_normal.png"
    }
  ],
  "materials": [
    {
      "doubleSided": true,
      "name": "Painted_wood",
      "normalTexture": {
        "index": 2,
        "scale": 1,
        "texCoord": 0
      },
      "pbrMetallicRoughness": {
        "baseColorFactor": [
          0.90000000000000002,
          0.90000000000000002,
          0.90000000000000002,
          1
        ],
        "baseColorTexture": {
          "index": 0,
          "texCoord": 0
        },
        "metallicFactor": 0,
        "metallicRoughnessTexture": {
          "index": 1,
          "texCoord": 0
        },
        "roughnessFactor": 1
      }
    },
    {
      "alphaMode": "BLEND",
      "doubleSided": true,
      "name": "Rattan",
      "normalTexture": {
        "index": 5,
        "scale": 1,
        "texCoord": 0
      },
      "occlusionTexture": {
        "index": 4,
        "strength": 1,
        "texCoord": 0
      },
      "pbrMetallicRoughness": {
        "baseColorFactor": [
          1,
          1,
          1,
          1
        ],
        "baseColorTexture": {
          "index": 3,
          "texCoord": 0
        },
        "metallicFactor": 0,
        "metallicRoughnessTexture": {
          "index": 4,
          "texCoord": 0
        },
        "roughnessFactor": 1
      }
    }
  ],
  "meshes": [
    {
      "primitives": [
        {
          "attributes": {
            "NORMAL": 1,
            "POSITION": 0,
            "TANGENT": 2,
            "TEXCOORD_0": 3
          },
          "indices": 4,
          "material": 0,
          "mode": 4
        }
      ]
    },
    {
      "primitives": [
        {
          "attributes": {
            "POSITION": 5,
            "TEXCOORD_0": 6
          },
          "indices": 7,
          "material": 1,
          "mode": 1
        }
      ]
    },
    {
      "primitives": [
        {
          "attributes": {
            "NORMAL": 9,
            "POSITION": 8,
            "TANGENT": 10,
            "TEXCOORD_0": 11
          },
          "indices": 12,
          "material": 1,
          "mode": 4
        }
      ]
    }
  ],
  "nodes": [
    {
      "children": [
        1
      ],
      "name": "RootNode (gltf orientation matrix)",
      "rotation": [
        -0.70710678118654746,
        -0,
        -0,
        0.70710678118654757
      ]
    },
    {
      "children": [
        2
      ],
      "name": "RootNode (model correction matrix)"
    },
    {
      "children": [
        3,
        4,
        5
      ],
      "name": "W40 - HPH000  - Sketchfab - mesh.obj.cleaner.materialmerger.gles"
    },
    {
      "mesh": 0,
      "name": ""
    },
    {
      "mesh": 1,
      "name": ""
    },
    {
      "mesh": 2,
      "name": ""
    }
  ],
  "samplers": [
    {
      "magFilter": 9729,
      "minFilter": 9987,
      "wrapS": 10497,
      "wrapT": 10497
    }
  ],
  "scene": 0,
  "scenes": [
    {
      "name": "OSG_Scene",
      "nodes": [
        0
      ]
    }
  ],
  "textures": [
    {
      "sampler": 0,
      "source": 0
    },
    {
      "sampler": 0,
      "source": 1
    },
    {
      "sampler": 0,
      "source": 2
    },
    {
      "sampler": 0,
      "source": 3
    },
    {
      "sampler": 0,
      "source": 4
    },
    {
      "sampler": 0,
      "source": 5
    }
  ]
}

